<svg width="82" height="68" viewBox="0 0 82 68" fill="none" xmlns="http://www.w3.org/2000/svg">
<path d="M50.0189 45.5317V48.9198H38.9902V35.5967H49.7711V38.9847H43.3843V40.5455H48.9929V43.7817H43.3843V45.5317H50.0189Z" fill="black"/>
<path d="M64.5005 39.1135H60.6169V48.9539H56.2203V39.1135H52.3367V35.6309H64.5005V39.1135Z" fill="black"/>
<path fill-rule="evenodd" clip-rule="evenodd" d="M68.1557 1.18682C69.5585 2.69537 69.4767 5.06276 67.9723 6.47174C65.4964 8.78934 64.6637 12.1375 65.2833 16.6284C65.9103 21.1714 67.9723 26.2896 70.5201 31.1762C73.0431 36.0155 75.8981 40.3694 77.9205 43.3741C78.1411 43.7002 78.3542 44.0188 78.5624 44.325C79.2638 45.3606 79.8685 46.2593 80.2279 46.8468C80.3493 47.0459 80.498 47.2998 80.6244 47.5612C80.6863 47.6882 80.783 47.8998 80.8697 48.1586L80.8722 48.1686C80.9243 48.3254 81.1473 48.9951 81.0507 49.8464C80.9937 50.3468 80.7979 51.1583 80.1411 51.9076C79.4397 52.7092 78.55 53.0602 77.8164 53.1573C76.6937 53.3091 75.8387 52.8984 75.6776 52.8212C75.6726 52.8187 75.6676 52.8162 75.6652 52.8138C75.1769 52.5822 74.7903 52.2736 74.6466 52.1591L74.6441 52.1566C71.5833 49.712 67.3106 46.0427 62.6314 42.0224C58.4132 38.3978 53.8654 34.492 49.5803 30.9472C45.2605 27.3724 41.1266 24.094 37.6123 21.6046C41.7214 26.3916 46.9161 31.6243 49.5258 34.2531C49.6621 34.39 49.791 34.5219 49.9124 34.6439C52.594 37.3448 58.8792 44.6063 63.08 51.0015C64.1407 52.6171 65.1073 54.2352 65.8607 55.7587C66.5869 57.2274 67.2362 58.8455 67.4568 60.4063C67.6675 61.9024 67.5882 64.3968 65.432 66.0522C63.5459 67.4985 61.1964 67.3566 59.5112 67.0355C57.3451 66.6248 55.1393 65.4672 53.0798 64.118C50.9558 62.7264 48.6782 60.9191 46.3262 58.8878C42.1626 55.2932 37.5206 50.7799 32.8315 46.2169C32.2367 45.6369 31.6394 45.0594 31.0446 44.4794C25.6963 39.2865 20.3256 34.146 15.3218 30.041C10.2064 25.8465 5.93372 23.1331 2.77132 22.2966C0.786146 21.7714 -0.400994 19.7276 0.124421 17.7311C0.649836 15.7347 2.68458 14.5448 4.67223 15.07C9.51497 16.3545 14.8583 20.0139 20.0282 24.2533C25.3096 28.5823 30.8909 33.9344 36.2169 39.1073C36.8167 39.6898 37.4115 40.2674 38.0014 40.8424C42.7251 45.4353 47.1936 49.7817 51.1764 53.2195C53.4119 55.1488 55.4119 56.7221 57.1443 57.8572C57.925 58.37 58.5991 58.7559 59.1691 59.0421C58.5991 57.8946 57.811 56.5652 56.8618 55.1189C52.9757 49.2042 47.0226 42.3286 44.636 39.9238C44.5071 39.7944 44.3708 39.655 44.2221 39.5081C41.5033 36.7698 35.7262 30.9522 31.3321 25.7419C29.0817 23.0708 26.9131 20.2404 25.8276 17.9527C25.5426 17.3528 25.2675 16.6607 25.1089 15.9263C24.9577 15.2293 24.8412 14.1813 25.208 13.0611C25.6293 11.7741 26.5538 10.8007 27.7285 10.2755C28.7546 9.81745 29.7831 9.77762 30.5489 9.8299C32.2689 9.94441 34.0707 10.7211 35.6221 11.5326C37.2851 12.4039 39.1489 13.5839 41.1092 14.9455C45.0375 17.6714 49.6398 21.3183 54.3066 25.1793C57.1517 27.5318 59.992 29.939 62.7355 32.2865C60.5149 27.6886 58.5867 22.5954 57.9052 17.6565C57.0972 11.804 57.9919 5.59548 62.8892 1.00759C64.3985 -0.403885 66.7554 -0.321736 68.1557 1.18682Z" fill="#FF47D6"/>
<path fill-rule="evenodd" clip-rule="evenodd" d="M68.1557 1.18682C69.5585 2.69537 69.4767 5.06276 67.9723 6.47174C65.4964 8.78934 64.6637 12.1375 65.2833 16.6284C65.9103 21.1714 67.9723 26.2896 70.5201 31.1762C73.0431 36.0155 75.8981 40.3694 77.9205 43.3741C78.1411 43.7002 78.3542 44.0188 78.5624 44.325C79.2638 45.3606 79.8685 46.2593 80.2279 46.8468C80.3493 47.0459 80.498 47.2998 80.6244 47.5612C80.6863 47.6882 80.783 47.8998 80.8697 48.1586L80.8722 48.1686C80.9243 48.3254 81.1473 48.9951 81.0507 49.8464C80.9937 50.3468 80.7979 51.1583 80.1411 51.9076C79.4397 52.7092 78.55 53.0602 77.8164 53.1573C76.6937 53.3091 75.8387 52.8984 75.6776 52.8212C75.6726 52.8187 75.6676 52.8162 75.6652 52.8138C75.1769 52.5822 74.7903 52.2736 74.6466 52.1591L74.6441 52.1566C71.5833 49.712 67.3106 46.0427 62.6314 42.0224C58.4132 38.3978 53.8654 34.492 49.5803 30.9472C45.2605 27.3724 41.1266 24.094 37.6123 21.6046C41.7214 26.3916 46.9161 31.6243 49.5258 34.2531C49.6621 34.39 49.791 34.5219 49.9124 34.6439C52.594 37.3448 58.8792 44.6063 63.08 51.0015C64.1407 52.6171 65.1073 54.2352 65.8607 55.7587C66.5869 57.2274 67.2362 58.8455 67.4568 60.4063C67.6675 61.9024 67.5882 64.3968 65.432 66.0522C63.5459 67.4985 61.1964 67.3566 59.5112 67.0355C57.3451 66.6248 55.1393 65.4672 53.0798 64.118C50.9558 62.7264 48.6782 60.9191 46.3262 58.8878C42.1626 55.2932 37.5206 50.7799 32.8315 46.2169C32.2367 45.6369 31.6394 45.0594 31.0446 44.4794C25.6963 39.2865 20.3256 34.146 15.3218 30.041C10.2064 25.8465 5.93372 23.1331 2.77132 22.2966C0.786146 21.7714 -0.400994 19.7276 0.124421 17.7311C0.649836 15.7347 2.68458 14.5448 4.67223 15.07C9.51497 16.3545 14.8583 20.0139 20.0282 24.2533C25.3096 28.5823 30.8909 33.9344 36.2169 39.1073C36.8167 39.6898 37.4115 40.2674 38.0014 40.8424C42.7251 45.4353 47.1936 49.7817 51.1764 53.2195C53.4119 55.1488 55.4119 56.7221 57.1443 57.8572C57.925 58.37 58.5991 58.7559 59.1691 59.0421C58.5991 57.8946 57.811 56.5652 56.8618 55.1189C52.9757 49.2042 47.0226 42.3286 44.636 39.9238C44.5071 39.7944 44.3708 39.655 44.2221 39.5081C41.5033 36.7698 35.7262 30.9522 31.3321 25.7419C29.0817 23.0708 26.9131 20.2404 25.8276 17.9527C25.5426 17.3528 25.2675 16.6607 25.1089 15.9263C24.9577 15.2293 24.8412 14.1813 25.208 13.0611C25.6293 11.7741 26.5538 10.8007 27.7285 10.2755C28.7546 9.81745 29.7831 9.77762 30.5489 9.8299C32.2689 9.94441 34.0707 10.7211 35.6221 11.5326C37.2851 12.4039 39.1489 13.5839 41.1092 14.9455C45.0375 17.6714 49.6398 21.3183 54.3066 25.1793C57.1517 27.5318 59.992 29.939 62.7355 32.2865C60.5149 27.6886 58.5867 22.5954 57.9052 17.6565C57.0972 11.804 57.9919 5.59548 62.8892 1.00759C64.3985 -0.403885 66.7554 -0.321736 68.1557 1.18682Z" fill="url(#paint0_radial_1249_674)" fill-opacity="0.98"/>
<mask id="mask0_1249_674" style="mask-type:alpha" maskUnits="userSpaceOnUse" x="52" y="35" width="13" height="14">
<path d="M64.5005 39.1115H60.6169V48.952H56.2203V39.1115H52.3367V35.6289H64.5005V39.1115Z" fill="white"/>
</mask>
<g mask="url(#mask0_1249_674)">
<path d="M51.0602 31.7725L65.4348 47.9533H67.4175L67.6653 31.7725H51.0602Z" fill="black"/>
</g>
<mask id="mask1_1249_674" style="mask-type:alpha" maskUnits="userSpaceOnUse" x="37" y="33" width="16" height="18">
<path d="M37.1811 33.5156L52.0513 49.3231L37.1811 50.0699V33.5156Z" fill="#C4C4C4"/>
</mask>
<g mask="url(#mask1_1249_674)">
<path d="M50.0195 45.5327V48.9207H38.9907V35.5977H49.7716V38.9857H43.3849V40.5465H48.9934V43.7827H43.3849V45.5327H50.0195Z" fill="black"/>
</g>
<path d="M17.7633 49.224C16.3606 49.224 15.0991 48.9327 13.9739 48.3477C12.8487 47.7503 11.9664 46.9263 11.322 45.8733C10.6901 44.8079 10.3753 43.603 10.3753 42.2563C10.3753 40.912 10.6901 39.7121 11.322 38.6591C11.9664 37.5937 12.8512 36.7672 13.9739 36.1847C15.0991 35.5872 16.3606 35.291 17.7633 35.291C19.0521 35.291 20.202 35.52 21.2107 35.9756C22.2219 36.4311 23.0547 37.0933 23.7114 37.9546L20.8886 40.4863C20.0682 39.4458 19.1017 38.9255 17.9889 38.9255C17.0545 38.9255 16.3036 39.2292 15.7335 39.8391C15.166 40.4365 14.881 41.2406 14.881 42.2563C14.881 43.2719 15.166 44.0835 15.7335 44.6933C16.3011 45.2908 17.0545 45.587 17.9889 45.587C19.1017 45.587 20.0657 45.0668 20.8886 44.0262L23.7114 46.5579C23.0547 47.4217 22.2219 48.0814 21.2107 48.5369C20.202 48.995 19.0521 49.224 17.7633 49.224Z" fill="black"/>
<path d="M35.2578 41.9346C36.0037 42.201 36.5713 42.6018 36.9629 43.1345C37.3545 43.6548 37.5502 44.2945 37.5502 45.0563C37.5502 46.2487 37.0769 47.1946 36.1301 47.8917C35.1958 48.5762 33.8699 48.9198 32.1499 48.9198H25.0642V35.5967H31.7905C33.4337 35.5967 34.7026 35.9004 35.5998 36.5103C36.5093 37.1202 36.9653 37.9765 36.9653 39.0793C36.9653 39.7141 36.8142 40.2717 36.5093 40.7546C36.2194 41.2351 35.803 41.6309 35.2578 41.9346ZM29.4608 40.7173H31.3543C32.0879 40.7173 32.4547 40.3937 32.4547 39.7465C32.4547 39.0743 32.0879 38.7383 31.3543 38.7383H29.4608V40.7173ZM31.9417 45.7782C32.6753 45.7782 33.0396 45.4222 33.0396 44.7127C33.0396 44.0282 32.6728 43.6846 31.9417 43.6846H29.4584V45.7782H31.9417Z" fill="black"/>
<defs>
<radialGradient id="paint0_radial_1249_674" cx="0" cy="0" r="1" gradientUnits="userSpaceOnUse" gradientTransform="translate(49.8631 64.4228) rotate(-18.2117) scale(50.5451 156.509)">
<stop stop-color="#FF0000"/>
<stop offset="0.4375" stop-color="#FFA800"/>
<stop offset="1" stop-color="#FF47D6"/>
</radialGradient>
</defs>
</svg>
